<?xml version="1.0" encoding="UTF-8"?>
<!DOCTYPE svg PUBLIC "-//W3C//DTD SVG 1.1//EN" "http://www.w3.org/Graphics/SVG/1.1/DTD/svg11.dtd">
<!-- Creator: CorelDRAW X8 -->
<svg xmlns="http://www.w3.org/2000/svg" xml:space="preserve" width="210mm" height="297mm" version="1.1" style="shape-rendering:geometricPrecision; text-rendering:geometricPrecision; image-rendering:optimizeQuality; fill-rule:evenodd; clip-rule:evenodd"
viewBox="0 0 21000 29700"
 xmlns:xlink="http://www.w3.org/1999/xlink">
 <defs>
  <style type="text/css">
   <![CDATA[
    .str0 {stroke:black;stroke-width:253.99;stroke-linecap:round;stroke-linejoin:round}
    .fil0 {fill:none}
   ]]>
  </style>
 </defs>
 <g id="Capa_x0020_1">
  <metadata id="CorelCorpID_0Corel-Layer"/>
  <g id="_2145307027536">
   <path class="fil0 str0" d="M8259 18586c825,0 1494,-669 1494,-1494 0,-824 -669,-1493 -1494,-1493 -825,0 -1493,669 -1493,1493 0,825 668,1494 1493,1494z"/>
   <path class="fil0 str0" d="M12741 17839c825,0 1493,-668 1493,-1493 0,-825 -668,-1494 -1493,-1494 -825,0 -1494,669 -1494,1494 0,825 669,1493 1494,1493z"/>
   <path class="fil0 str0" d="M9753 17089l0 -3328c0,-529 187,-1042 529,-1447 342,-404 816,-675 1338,-763l2614 -437 0 5228"/>
  </g>
 </g>
</svg>
