<?xml version="1.0" encoding="UTF-8"?>
<!DOCTYPE svg PUBLIC "-//W3C//DTD SVG 1.1//EN" "http://www.w3.org/Graphics/SVG/1.1/DTD/svg11.dtd">
<!-- Creator: CorelDRAW X8 -->
<svg xmlns="http://www.w3.org/2000/svg" xml:space="preserve" width="67.7332mm" height="67.7332mm" version="1.1" style="shape-rendering:geometricPrecision; text-rendering:geometricPrecision; image-rendering:optimizeQuality; fill-rule:evenodd; clip-rule:evenodd"
viewBox="0 0 6773 6773"
 xmlns:xlink="http://www.w3.org/1999/xlink">
 <defs>
  <style type="text/css">
   <![CDATA[
    .fil0 {fill:white}
   ]]>
  </style>
 </defs>
 <g id="Capa_x0020_1">
  <metadata id="CorelCorpID_0Corel-Layer"/>
  <g id="_2911982441904">
   <path class="fil0" d="M1836 3482l3108 3 -7 256 -3102 1 1 -260zm-108 254c-160,12 -243,-35 -250,-209 -9,-208 -18,-1311 32,-1391 86,-135 708,-78 895,-78l1927 0c1135,0 956,-174 956,974 0,465 75,720 -240,701 -32,-79 -18,-227 -21,-334 -336,-21 -3137,-32 -3286,15l-13 322zm-141 -1755c-247,74 -194,290 -193,532 0,247 0,494 0,741 -1,662 16,580 888,580 402,0 2741,40 2914,-17 214,-71 188,-295 188,-513 -1,-247 0,-494 0,-741 0,-691 -24,-597 -879,-597 -421,0 -2713,-47 -2918,15z"/>
   <path class="fil0" d="M4653 2311l290 6 -4 294 -293 5 7 -305zm-99 54c0,399 -87,343 458,335 34,-115 29,-357 3,-475 -96,-4 -193,-3 -290,-4 -162,-2 -171,-23 -171,144z"/>
   <path class="fil0" d="M3752 3996c-41,113 -46,612 7,719 111,221 496,70 378,-156 -127,68 -21,33 -98,133 -38,49 -76,43 -152,30 -106,-58 -65,-401 -65,-580 -1,-133 18,-110 -70,-146z"/>
   <path class="fil0" d="M2628 4563c-60,235 193,327 336,212 64,-52 72,-140 74,-236 3,-172 23,-211 -57,-283 -78,139 27,351 -70,443 -46,44 -123,51 -173,0 -85,-85 17,-91 -110,-136z"/>
   <path class="fil0" d="M3343 4168c-1,115 -1,231 0,346 0,295 -33,257 50,304 75,-103 36,-768 13,-821 -96,39 -64,41 -63,171z"/>
   <path class="fil0" d="M2983 4177c45,-41 38,67 57,-84 12,-100 -41,-93 -42,-94 -85,43 -50,123 -15,178z"/>
  </g>
 </g>
</svg>
