<?xml version="1.0" encoding="UTF-8"?>
<!DOCTYPE svg PUBLIC "-//W3C//DTD SVG 1.1//EN" "http://www.w3.org/Graphics/SVG/1.1/DTD/svg11.dtd">
<!-- Creator: CorelDRAW X8 -->
<svg xmlns="http://www.w3.org/2000/svg" xml:space="preserve" width="67.7332mm" height="67.7332mm" version="1.1" style="shape-rendering:geometricPrecision; text-rendering:geometricPrecision; image-rendering:optimizeQuality; fill-rule:evenodd; clip-rule:evenodd"
viewBox="0 0 6773 6773"
 xmlns:xlink="http://www.w3.org/1999/xlink">
 <defs>
  <style type="text/css">
   <![CDATA[
    .fil0 {fill:white}
   ]]>
  </style>
 </defs>
 <g id="Capa_x0020_1">
  <metadata id="CorelCorpID_0Corel-Layer"/>
  <g id="_2876154738400">
   <path class="fil0" d="M3603 4634c-322,24 -907,12 -1229,12 -233,0 -179,-147 -179,-492l0 -1554c0,-204 91,-190 295,-190l997 0c260,0 185,267 185,643 0,393 19,1141 0,1426 -10,152 -28,76 -69,155zm188 -1106c0,-79 -9,-56 20,-116 333,-31 337,413 -13,381l-7 -114 0 -151zm7 381c228,-16 400,-110 381,-337 -8,-94 -58,-173 -131,-221 -149,-98 -176,6 -254,-104l3 -162c931,38 656,1133 -5,1019l6 -195zm13 -1264c-39,-74 -33,-203 76,-137 55,34 79,145 -76,137zm225 -127c-47,-190 -245,-76 -329,-160 144,-108 385,10 406,177 24,188 -237,384 -323,259 58,-82 312,-12 246,-276zm-924 -218c-17,-224 185,-163 630,-163 1018,1 836,-221 836,1089 0,180 36,992 -31,1094 -71,87 -653,57 -750,43l-5 -135c245,-23 363,-43 515,-174 291,-253 281,-660 5,-906 -233,-207 -344,-107 -515,-181 36,-76 244,13 380,-201 195,-308 -152,-683 -498,-528 -217,98 -175,65 -567,62zm-135 -7c-213,26 -492,-17 -693,13 -244,36 -208,246 -208,445 -1,431 0,863 0,1295 0,801 -191,711 1318,711 259,0 369,-22 400,-269 641,-83 906,224 904,-464 -1,-431 0,-863 0,-1295 0,-154 35,-498 -48,-607 -108,-142 -380,-100 -584,-100 -173,0 -859,-39 -983,48 -106,76 -69,117 -106,223z"/>
   <path class="fil0" d="M2407 4003c-81,-281 133,-568 388,-623 333,-72 622,127 682,369 165,673 -887,893 -1070,254zm390 -732c-914,240 -530,1387 302,1212 320,-68 591,-387 493,-755 -93,-352 -466,-543 -795,-457z"/>
   <path class="fil0" d="M2662 2902c-72,-354 509,-408 544,-85 38,350 -488,365 -544,85zm204 -410c-113,27 -163,36 -241,125 -218,249 4,680 414,585 481,-112 295,-819 -173,-710z"/>
   <path class="fil0" d="M2885 3691c280,-83 365,322 109,375 -271,57 -385,-293 -109,-375zm-264 268c98,365 746,251 643,-160 -37,-149 -204,-259 -400,-224 -161,29 -296,188 -243,384z"/>
   <path class="fil0" d="M2859 2791c75,-24 71,-20 153,-3l-21 133 -124 -9 -8 -121zm-28 -93c-40,27 -79,28 -98,103 -23,99 31,208 144,235 198,47 320,-141 233,-283 -57,-93 -181,-123 -279,-55z"/>
  </g>
 </g>
</svg>
