<?xml version="1.0" encoding="UTF-8"?>
<!DOCTYPE svg PUBLIC "-//W3C//DTD SVG 1.1//EN" "http://www.w3.org/Graphics/SVG/1.1/DTD/svg11.dtd">
<!-- Creator: CorelDRAW X8 -->
<svg xmlns="http://www.w3.org/2000/svg" xml:space="preserve" width="67.7332mm" height="67.7332mm" version="1.1" style="shape-rendering:geometricPrecision; text-rendering:geometricPrecision; image-rendering:optimizeQuality; fill-rule:evenodd; clip-rule:evenodd"
viewBox="0 0 6773 6773"
 xmlns:xlink="http://www.w3.org/1999/xlink">
 <defs>
  <style type="text/css">
   <![CDATA[
    .str0 {stroke:white;stroke-width:16.93}
    .fil1 {fill:none}
    .fil0 {fill:white}
   ]]>
  </style>
 </defs>
 <g id="Capa_x0020_1">
  <metadata id="CorelCorpID_0Corel-Layer"/>
  <g id="_2876154728384">
   <g>
    <path class="fil0" d="M2339 1815c-38,185 -57,1760 -1,1995 13,52 -74,776 3,1157 180,173 243,127 532,127 197,0 1286,14 1387,-8 236,-53 202,-280 202,-500 0,-434 29,-2513 -19,-2760 -62,48 -42,-59 -37,200 1,63 0,127 0,190 0,403 33,2637 -28,2683 -78,158 -233,119 -405,119l-1355 0c-144,-3 -117,-11 -205,-78l-1 -58c-34,-37 -21,55 -29,-63l-3 -2856c8,-119 -1,-32 30,-67l-1 -60c41,-30 43,-42 93,-65 27,-43 0,-31 93,-34l1272 2c77,0 155,-1 233,0 312,2 179,40 223,-35 -231,-50 -776,-22 -1048,-22 -177,0 -353,0 -529,0 -219,0 -289,-17 -407,133z"/>
    <path class="fil0" d="M2536 1963c16,-101 140,-62 379,-62 247,0 1219,-26 1316,19 20,58 43,2885 -11,2935 -48,45 -1252,18 -1496,20 -194,1 -161,13 -186,-56l-2 -2856zm-63 -56l-1 2976c61,94 212,60 358,60l1270 1c270,1 215,-10 215,-633l0 -2137c0,-147 37,-317 -86,-340 -109,-19 -1620,-10 -1716,12l-40 61z"/>
    <path class="fil0" d="M3317 2084c137,115 217,-59 63,-110 -37,25 -81,46 -63,110z"/>
   </g>
   <rect class="fil1 str0" x="2327" y="1710" width="2119" height="3353" rx="223" ry="216"/>
  </g>
 </g>
</svg>
