<?xml version="1.0" encoding="UTF-8"?>
<!DOCTYPE svg PUBLIC "-//W3C//DTD SVG 1.1//EN" "http://www.w3.org/Graphics/SVG/1.1/DTD/svg11.dtd">
<!-- Creator: CorelDRAW X8 -->
<svg xmlns="http://www.w3.org/2000/svg" xml:space="preserve" width="67.7332mm" height="67.7332mm" version="1.1" style="shape-rendering:geometricPrecision; text-rendering:geometricPrecision; image-rendering:optimizeQuality; fill-rule:evenodd; clip-rule:evenodd"
viewBox="0 0 6773 6773"
 xmlns:xlink="http://www.w3.org/1999/xlink">
 <defs>
  <style type="text/css">
   <![CDATA[
    .str0 {stroke:white;stroke-width:135.46}
    .fil1 {fill:none}
    .fil0 {fill:white}
   ]]>
  </style>
 </defs>
 <g id="Capa_x0020_1">
  <metadata id="CorelCorpID_0Corel-Layer"/>
  <g id="_2876280947616">
   <g>
    <path class="fil0" d="M1983 2510l2812 -9 -11 1807c-22,93 -2724,48 -2789,19 -50,-156 -24,-1543 -12,-1817zm0 -150c-38,-651 -175,-532 1401,-533 1516,-1 1478,-124 1408,539l-2809 -6zm14 2707l1897 14c136,-5 136,-4 166,-120 -120,-53 -1441,-25 -1770,-21 -36,0 -102,3 -135,0 -207,-18 -197,-132 -170,-450 277,-29 2670,-35 2790,12l32 138c11,233 -88,273 -40,378l30 40c48,-55 100,-68 126,-157 29,-100 12,-2530 13,-2848 1,-226 -63,-354 -297,-361l-2538 2c-351,29 -256,508 -256,1026 0,418 0,836 0,1254 0,214 -1,427 -1,640 1,368 -32,230 153,453z"/>
    <path class="fil0" d="M2520 3902c-30,-62 -24,-154 -24,-221 9,-868 -137,-739 461,-739 270,0 1282,-58 1321,53 33,94 13,835 -14,910 -49,58 -1292,24 -1548,26l-153 -13c-6,-1 -18,1 -22,-7 -4,-9 -14,-5 -21,-9zm-149 45c53,172 443,117 719,117 276,0 552,0 827,0 372,1 504,81 501,-329 0,-135 15,-733 -13,-814 -62,-186 -499,-114 -701,-114 -276,0 -552,0 -827,0 -343,-1 -519,-84 -516,313 0,131 -14,751 10,827z"/>
    <path class="fil0" d="M4403 2194c38,-116 22,-109 -25,-221 -122,-9 -242,-1 -216,155 25,146 167,110 241,66z"/>
    <path class="fil0" d="M3833 1980c-97,154 -13,313 141,240 122,-58 137,-286 -141,-240z"/>
    <path class="fil0" d="M3629 1980c-255,-43 -287,173 -142,240 158,74 233,-90 142,-240z"/>
    <path class="fil0" d="M3041 2163c140,132 344,72 210,-186l-168 -9c-47,115 -58,48 -42,195z"/>
    <path class="fil0" d="M2379 2187c103,74 132,55 221,-1 72,-313 -314,-300 -221,1z"/>
    <path class="fil0" d="M4383 4949c-109,33 -72,37 -104,109l363 16c-24,-96 -48,-99 -74,-135 -64,-2 -124,-9 -185,10z"/>
   </g>
   <rect class="fil1 str0" x="1892" y="1770" width="2950" height="3221" rx="271" ry="273"/>
  </g>
 </g>
</svg>
