<?xml version="1.0" encoding="UTF-8"?>
<!DOCTYPE svg PUBLIC "-//W3C//DTD SVG 1.1//EN" "http://www.w3.org/Graphics/SVG/1.1/DTD/svg11.dtd">
<!-- Creator: CorelDRAW X8 -->
<svg xmlns="http://www.w3.org/2000/svg" xml:space="preserve" width="67.7332mm" height="67.7332mm" version="1.1" style="shape-rendering:geometricPrecision; text-rendering:geometricPrecision; image-rendering:optimizeQuality; fill-rule:evenodd; clip-rule:evenodd"
viewBox="0 0 6773 6773"
 xmlns:xlink="http://www.w3.org/1999/xlink">
 <defs>
  <style type="text/css">
   <![CDATA[
    .fil0 {fill:white}
   ]]>
  </style>
 </defs>
 <g id="Capa_x0020_1">
  <metadata id="CorelCorpID_0Corel-Layer"/>
  <g id="_2911982466032">
   <path class="fil0" d="M2302 3020l2163 2 4 1982c-23,169 -139,154 -278,153l-1590 -1c-404,4 -305,-163 -305,-520 0,-494 -36,-1141 6,-1616zm-5 -79c-22,-1486 -92,-1335 488,-1335l1222 0c167,0 414,-54 458,132 30,128 11,1007 5,1201l-2173 2zm-80 2110c43,248 366,197 545,197l1522 1c308,-15 271,-244 270,-475l0 -2281c0,-208 22,-569 -2,-759 -34,-266 -352,-208 -545,-208l-1523 -1c-315,11 -272,249 -272,484l5 3042z"/>
   <path class="fil0" d="M2548 3860c-27,-104 -31,-415 6,-512 104,33 64,158 64,274 0,98 38,245 -70,238zm-42 83l139 1c90,-137 59,-191 60,-368 0,-110 30,-314 -127,-316 -158,-1 -129,186 -129,293 1,177 -31,250 57,390z"/>
   <path class="fil0" d="M2550 2613c-29,-94 -29,-422 0,-516 107,4 69,159 69,258 0,104 38,254 -69,258zm-43 -581c-89,61 -142,825 140,645 94,-60 131,-830 -140,-645z"/>
  </g>
 </g>
</svg>
