<?xml version="1.0" encoding="UTF-8"?>
<!DOCTYPE svg PUBLIC "-//W3C//DTD SVG 1.1//EN" "http://www.w3.org/Graphics/SVG/1.1/DTD/svg11.dtd">
<!-- Creator: CorelDRAW X8 -->
<svg xmlns="http://www.w3.org/2000/svg" xml:space="preserve" width="67.7332mm" height="67.7332mm" version="1.1" style="shape-rendering:geometricPrecision; text-rendering:geometricPrecision; image-rendering:optimizeQuality; fill-rule:evenodd; clip-rule:evenodd"
viewBox="0 0 6773 6773"
 xmlns:xlink="http://www.w3.org/1999/xlink">
 <defs>
  <style type="text/css">
   <![CDATA[
    .fil0 {fill:white}
   ]]>
  </style>
 </defs>
 <g id="Capa_x0020_1">
  <metadata id="CorelCorpID_0Corel-Layer"/>
  <g id="_2876274538912">
   <path class="fil0" d="M5044 5299c-278,82 -3169,75 -3322,-26 -47,-74 -82,-3528 -20,-3758 225,-146 1320,-69 1673,-69 342,-1 1437,-49 1682,33 87,310 78,3534 -13,3820zm-3536 -79c41,368 465,291 729,291 483,0 2741,48 2895,-94 189,-175 109,-595 106,-884 -2,-332 24,-662 24,-1004 0,-2262 252,-2258 -750,-2258 -334,0 -669,0 -1003,0 -313,0 -1740,-72 -1905,87 -170,163 -97,1590 -97,1903 1,545 -55,1461 1,1959z"/>
   <path class="fil0" d="M3242 2621c1164,-225 1533,1636 298,1841 -1178,195 -1569,-1596 -298,-1841zm-109 -149c-1450,368 -891,2481 522,2142 1393,-334 890,-2500 -522,-2142z"/>
   <path class="fil0" d="M2933 3084c470,-336 1078,-141 1086,445 9,615 -589,786 -1084,473 -13,-134 -6,-749 -2,-918zm-172 177c109,521 -275,870 402,1055 396,108 843,-100 979,-491 430,-1229 -1555,-1390 -1381,-564z"/>
   <path class="fil0" d="M3495 1669c-210,101 -47,392 156,295 178,-85 81,-409 -156,-295z"/>
   <path class="fil0" d="M4626 1708c-254,-170 -387,61 -279,209 99,136 354,85 279,-209z"/>
   <path class="fil0" d="M4184 1889l-19 -209c-481,-201 -322,569 19,209z"/>
   <path class="fil0" d="M2149 1701l-20 224c239,111 375,40 299,-229 -158,-81 -133,-79 -279,5z"/>
  </g>
 </g>
</svg>
