<?xml version="1.0" encoding="UTF-8"?>
<!DOCTYPE svg PUBLIC "-//W3C//DTD SVG 1.1//EN" "http://www.w3.org/Graphics/SVG/1.1/DTD/svg11.dtd">
<!-- Creator: CorelDRAW X8 -->
<svg xmlns="http://www.w3.org/2000/svg" xml:space="preserve" width="67.7332mm" height="67.7332mm" version="1.1" style="shape-rendering:geometricPrecision; text-rendering:geometricPrecision; image-rendering:optimizeQuality; fill-rule:evenodd; clip-rule:evenodd"
viewBox="0 0 6773 6773"
 xmlns:xlink="http://www.w3.org/1999/xlink">
 <defs>
  <style type="text/css">
   <![CDATA[
    .fil0 {fill:white}
   ]]>
  </style>
 </defs>
 <g id="Capa_x0020_1">
  <metadata id="CorelCorpID_0Corel-Layer"/>
  <g id="_2876154748448">
   <path class="fil0" d="M1299 4373l4171 -7c11,301 -387,218 -918,218l-2905 0c-200,1 -371,-4 -348,-211zm422 -1988c0,-157 69,-192 225,-192l2877 1c283,0 227,152 226,365l-2 1720 -3325 3 -1 -1897zm-99 1885l-410 13c-72,329 151,389 408,389l3584 0c265,0 441,-121 343,-393l-399 -1 -2 -1844c1,-221 -34,-333 -295,-333l-2932 0c-399,0 -295,418 -295,929 0,410 9,831 -2,1240z"/>
   <path class="fil0" d="M1911 2382l2947 -7 -2 1721 -2946 4 1 -1718zm3025 -98l-3103 -5c-55,165 -14,1391 -18,1668 -5,302 -118,248 647,248l1846 0c748,0 654,52 649,-248 -4,-265 36,-1516 -21,-1663z"/>
  </g>
 </g>
</svg>
