<?xml version="1.0" encoding="UTF-8"?>
<!DOCTYPE svg PUBLIC "-//W3C//DTD SVG 1.1//EN" "http://www.w3.org/Graphics/SVG/1.1/DTD/svg11.dtd">
<!-- Creator: CorelDRAW X8 -->
<svg xmlns="http://www.w3.org/2000/svg" xml:space="preserve" width="67.7332mm" height="67.7332mm" version="1.1" style="shape-rendering:geometricPrecision; text-rendering:geometricPrecision; image-rendering:optimizeQuality; fill-rule:evenodd; clip-rule:evenodd"
viewBox="0 0 6773 6773"
 xmlns:xlink="http://www.w3.org/1999/xlink">
 <defs>
  <style type="text/css">
   <![CDATA[
    .fil0 {fill:white}
   ]]>
  </style>
 </defs>
 <g id="Capa_x0020_1">
  <metadata id="CorelCorpID_0Corel-Layer"/>
  <g id="_2876154737792">
   <path class="fil0" d="M3335 4190l113 -6c6,68 5,123 6,189 1,112 10,141 -26,213 -131,-10 -102,-7 -100,-162 1,-79 0,-155 7,-234zm-1385 -2143l2882 -3 2 2010 -2879 6 -5 -2013zm-115 2128l1364 11c5,68 5,124 6,188 1,172 11,202 -75,213l-459 8c-72,25 -40,21 -63,49 14,32 -23,69 131,75l664 -3c140,0 279,0 418,0 132,0 322,39 357,-72 -65,-82 -134,-56 -259,-55 -107,1 -213,-1 -320,2l-13 -408c235,7 1202,28 1361,-16 37,-184 13,-1338 13,-1684 0,-255 49,-540 -87,-563l-1470 -3c-371,0 -1247,-45 -1560,11 -39,134 -37,2046 -8,2247z"/>
   <g>
    <path class="fil0" d="M4177 2568c-128,-15 -113,41 -204,313 -39,118 -88,330 -153,407 -44,-51 -185,-490 -216,-588 -32,-106 -26,-145 -141,-132 -27,123 158,570 222,764 161,488 263,42 352,-240 44,-140 166,-396 140,-524z"/>
    <path class="fil0" d="M2901 2691c-3,160 -1,320 -1,480l7 330c37,71 10,32 79,40 101,-134 -11,-762 56,-834 83,-51 181,9 291,-47l7 -67c-108,-64 -622,-48 -731,-19 -49,168 149,117 292,117z"/>
   </g>
  </g>
 </g>
</svg>
